<svg xmlns="http://www.w3.org/2000/svg" viewBox="0 0 1200 300" width="1200" height="300" role="img" aria-label="local.ch Business Scraper: Multithreaded scraper for business listings on local.ch">
  <defs>
    <linearGradient id="bg" x1="0" y1="0" x2="1" y2="1">
      <stop offset="0" stop-color="#0f2027"/>
      <stop offset="1" stop-color="#2c5364"/>
    </linearGradient>
    <linearGradient id="chip" x1="0" y1="0" x2="0" y2="1">
      <stop offset="0" stop-color="#ffffff" stop-opacity="0.16"/>
      <stop offset="1" stop-color="#ffffff" stop-opacity="0.06"/>
    </linearGradient>
  </defs>
  <rect width="1200" height="300" rx="18" fill="url(#bg)"/>
  <g stroke="#ffffff" stroke-opacity="0.05" stroke-width="1">
    <path d="M0 60H1200M0 120H1200M0 180H1200M0 240H1200"/>
    <path d="M200 0V300M400 0V300M600 0V300M800 0V300M1000 0V300"/>
  </g>
  <text x="60" y="98" font-family="Segoe UI, Helvetica, Arial, sans-serif" font-size="54" font-weight="700" fill="#ffffff">local.ch Business Scraper</text>
  <text x="62" y="140" font-family="Segoe UI, Helvetica, Arial, sans-serif" font-size="22" fill="#b8e6f0">Multithreaded scraper for business listings on local.ch</text>
  <g font-family="Segoe UI, Helvetica, Arial, sans-serif" font-size="18" font-weight="600" fill="#ffffff" text-anchor="middle">
    <rect x="45" y="190" width="190" height="56" rx="28" fill="url(#chip)" stroke="#7fd6e8" stroke-opacity="0.7"/>
    <text x="140" y="225">Search keyword</text>
    <rect x="275" y="190" width="190" height="56" rx="28" fill="url(#chip)" stroke="#7fd6e8" stroke-opacity="0.7"/>
    <text x="370" y="225">Collect URLs</text>
    <rect x="505" y="190" width="190" height="56" rx="28" fill="url(#chip)" stroke="#7fd6e8" stroke-opacity="0.7"/>
    <text x="600" y="225">Fetch in parallel</text>
    <rect x="735" y="190" width="190" height="56" rx="28" fill="url(#chip)" stroke="#7fd6e8" stroke-opacity="0.7"/>
    <text x="830" y="225">Parse fields</text>
    <rect x="965" y="190" width="190" height="56" rx="28" fill="url(#chip)" stroke="#7fd6e8" stroke-opacity="0.7"/>
    <text x="1060" y="225">Export CSV</text>
  </g>
  <g fill="none" stroke="#7fd6e8" stroke-width="3" stroke-linecap="round" stroke-linejoin="round">
    <path d="M246 218H264M258 211l7 7-7 7"/>
    <path d="M476 218H494M488 211l7 7-7 7"/>
    <path d="M706 218H724M718 211l7 7-7 7"/>
    <path d="M936 218H954M948 211l7 7-7 7"/>
  </g>
</svg>
